<?xml version="1.0" encoding="utf-8"?>
<!-- Generator: Adobe Illustrator 19.2.0, SVG Export Plug-In . SVG Version: 6.00 Build 0)  -->
<svg version="1.1" id="Layer_1" xmlns="http://www.w3.org/2000/svg" xmlns:xlink="http://www.w3.org/1999/xlink" x="0px" y="0px"
	 viewBox="0 0 500 500" style="enable-background:new 0 0 500 500;" xml:space="preserve">
<style type="text/css">
	.st0{fill:#774AA4;}
</style>
<path class="st0" d="M405.3,353.7l-41-27.1l-34.2,57.3l-39.7-11.7l-35,53.6l1.8,16.9l190.3-35.2l-11.1-119.2L405.3,353.7z
	 M227.9,302.3l30.5-4.2c4.9,2.2,8.4,3.1,14.3,4.6c9.2,2.4,19.9,4.7,35.7-3.3c3.7-1.8,11.3-8.9,14.4-12.9l125.1-22.8l12.8,154.9
	l-214.3,38.7L227.9,302.3z M460.2,246.5l-12.3,2.4L424.1,3.1L20,50.1l49.8,405.3l47.3-6.9c-3.8-5.4-9.7-12-19.7-20.3
	c-13.9-11.6-9-31.3-0.8-43.8c10.9-21,66.9-47.8,63.7-81.4c-1.1-12.2-3.1-28.1-14.4-39.1c-0.4,4.5,0.3,8.9,0.3,8.9s-4.6-5.9-7-14.1
	c-2.3-3.1-4.1-4.1-6.5-8.3c-1.7,4.8-1.5,10.4-1.5,10.4s-3.8-9-4.4-16.6c-2.3,3.4-2.8,9.9-2.8,9.9s-4.9-14.2-3.8-21.9
	c-2.3-6.7-8.9-19.9-7-49.9c12.3,8.7,39.5,6.6,50.1-9c3.5-5.2,5.9-19.3-1.8-47.2c-4.9-17.9-17.1-44.5-21.9-54.6L139,72
	c2.5,8.1,7.7,25.2,9.7,33.4c6,25.1,7.6,33.8,4.8,45.4c-2.4,10-8.1,16.6-22.7,24s-33.9-10.6-35.1-11.6
	c-14.2-11.3-25.1-29.8-26.3-38.7c-1.3-9.8,5.6-15.7,9.1-23.7c-5,1.4-10.5,4-10.5,4s6.6-6.9,14.8-12.8c3.4-2.3,5.4-3.7,8.9-6.7
	c-5.2-0.1-9.4,0.1-9.4,0.1s8.6-4.7,17.6-8.1c-6.5-0.3-12.8,0-12.8,0s19.2-8.6,34.4-15c10.4-4.3,20.7-3,26.4,5.3
	c7.5,10.9,15.4,16.8,32.2,20.5c10.3-4.6,13.4-6.9,26.3-10.5c11.4-12.6,20.3-14.2,20.3-14.2s-4.4,4.1-5.6,10.5
	c6.5-5.1,13.5-9.4,13.5-9.4s-2.7,3.4-5.3,8.8l0.6,0.9c7.5-4.5,16.4-8.1,16.4-8.1s-2.5,3.2-5.5,7.4c5.7,0,17.2,0.2,21.7,0.8
	c26.4,0.6,31.8-28.3,42-31.9c12.7-4.5,18.3-7.3,39.9,14c18.5,18.3,33,51,25.8,58.3c-6,6.1-17.9-2.4-31.1-18.8
	c-7-8.7-12.2-19-14.7-32.2C322.2,52.4,314.1,46,314.1,46s4.7,10.5,4.7,19.8c0,5.1,0.6,24,8.7,34.6c-0.8,1.5-1.2,7.7-2.1,8.8
	c-9.4-11.4-29.6-19.6-32.9-22c11.2,9.2,36.8,30.2,46.6,50.4c9.3,19.1,3.8,36.6,8.5,41.1c1.3,1.3,20,24.6,23.6,36.4
	c6.3,20.4,0.4,41.9-7.8,55.3l-22.9,3.6c-3.4-0.9-5.6-1.4-8.6-3.1c1.7-2.9,5-10.3,5-11.8l-1.3-2.3c-7.1,10.1-19.1,20-29,25.6
	c-13,7.4-28,6.2-37.7,3.2c-27.7-8.6-53.8-27.3-60.1-32.2c0,0-0.2,3.9,1,4.8c7,7.9,23,22.2,38.4,32.1l-32.9,3.6l15.6,121.6
	c-6.9,1-8,1.5-15.5,2.6c-6.7-23.6-19.4-39-33.3-48c-12.3-7.9-29.2-9.7-45.4-6.5l-1,1.2c11.3-1.2,24.6,0.5,38.2,9.1
	c13.4,8.5,24.2,30.5,28.2,43.7c5.1,16.9,8.6,35-5.1,54.2c-9.8,13.6-38.2,21.2-61.3,4.9c6.1,9.9,14.5,18,25.6,19.6
	c16.6,2.3,32.4-0.6,43.2-11.8c9.3-9.6,14.2-29.5,12.9-50.6l14.7-2.1l5.3,37.8L480,440.2L460.2,246.5z M312.6,144
	c-0.7,1.5-1.7,2.6-0.1,7.6l0.1,0.3l0.3,0.7l0.7,1.5c2.9,5.9,6,11.5,11.3,14.3c1.4-0.2,2.8-0.4,4.2-0.5c5-0.2,8.1,0.6,10.1,1.6
	c0.2-1,0.2-2.4,0.1-4.6c-0.4-7.5,1.5-20.2-12.9-26.9c-5.4-2.5-13-1.7-15.5,1.4c0.5,0.1,0.9,0.2,1.2,0.3
	C315.9,141.1,313.3,142.4,312.6,144z M352.8,213.8c-1.9-1-10.7-0.6-16.8,0.1c-11.8,1.4-24.5,5.5-27.2,7.7c-5.1,3.9-2.8,10.8,1,13.6
	c10.5,7.9,19.7,13.1,29.4,11.8c6-0.8,11.2-10.2,14.9-18.8C356.5,222.2,356.5,215.8,352.8,213.8z M248.6,153.2
	c3.3-3.2-16.5-7.3-31.9,3.2c-11.4,7.8-11.7,24.4-0.8,33.9c1.1,0.9,2,1.6,2.8,2.1c3.2-1.5,6.8-3,11-4.4c7-2.3,12.9-3.5,17.7-4.1
	c2.3-2.6,5-7.1,4.3-15.3C250.7,157.5,242.3,159.3,248.6,153.2z"/>
</svg>
